REM MD5 2871da569ec6199835dcaefefd84454e
FILE "Idol Janshi Suchie-Pai II Limited (Japan) (Disc 3) (Bonus Disc Part 2).bin" BINARY
  TRACK 01 MODE2/2352
    INDEX 01 00:00:00
  TRACK 02 AUDIO
    INDEX 00 66:50:09
    INDEX 01 66:52:09
  TRACK 03 AUDIO
    INDEX 00 67:23:48
    INDEX 01 67:25:48
  TRACK 04 AUDIO
    INDEX 00 67:40:47
    INDEX 01 67:42:47
  TRACK 05 AUDIO
    INDEX 00 69:33:09
    INDEX 01 69:35:09
REM LEADOUT 70:55:12
